<svg width="460" height="309" viewBox="0 0 460 309" fill="none" xmlns="http://www.w3.org/2000/svg">
<path d="M255.753 56.744C258.288 56.744 260.147 58.603 260.147 61.138C260.147 63.842 258.119 66.884 254.908 68.067C252.204 69.25 246.796 69.757 240.543 70.095C217.897 101.867 200.152 130.935 183.083 156.961C171.253 175.044 153.846 196.169 138.467 211.041C117.68 233.011 103.822 238.419 95.5407 238.419C83.7107 238.419 78.8097 228.786 78.6407 215.266C78.3027 194.986 94.3577 161.524 151.48 161.524H162.972L185.787 133.808C205.222 110.148 227.023 82.432 238.008 70.095C235.811 70.264 233.276 70.264 230.91 70.264H202.687C181.731 70.264 172.605 87.671 189.843 104.909L187.815 106.937C168.549 87.671 178.689 67.56 202.687 67.56H230.91H240.543C246.458 61.307 251.359 56.744 255.753 56.744ZM129.51 202.253L161.113 163.89H151.818C96.3857 163.89 81.3447 196 81.3447 215.266C81.3447 227.434 86.4147 235.715 94.0197 235.715C99.0897 235.715 106.019 232.335 129.51 202.253ZM288.063 157.299C293.471 151.553 298.541 146.145 302.935 141.582L304.625 143.272C300.231 147.835 294.992 153.243 289.753 158.82C261.53 188.902 247.334 199.042 240.405 199.042C237.701 199.042 236.011 197.183 236.011 193.296C236.011 184.677 242.433 167.777 253.587 152.398L256.291 148.849L255.953 148.511C216.238 187.888 200.521 197.352 193.085 197.352C189.198 197.352 186.494 195.493 186.494 189.578C186.494 179.438 194.099 158.482 210.492 141.582C229.082 122.147 253.925 110.148 265.248 110.148C271.67 110.148 273.36 114.711 273.36 118.598C273.36 121.978 272.346 125.696 269.98 130.428L270.487 130.935C276.571 123.837 282.486 117.415 288.232 111.5H308.174C290.429 128.062 276.233 142.765 264.741 156.623C250.207 174.199 239.391 189.071 239.391 194.648C239.391 195.831 239.898 196.338 241.25 196.338C245.475 196.338 261.192 185.691 288.063 157.299ZM193.085 194.648C200.014 194.648 216.576 184.17 261.53 139.385C268.459 129.752 270.656 122.823 270.656 118.26C270.656 115.218 269.135 112.852 265.755 112.852C259.84 112.852 251.897 117.753 221.477 149.187C195.958 175.72 189.536 186.367 189.536 191.437C189.536 193.634 190.719 194.648 193.085 194.648ZM292.098 235.546C324.884 199.211 345.333 177.41 378.964 141.582L380.654 143.272C344.826 181.466 324.546 203.436 289.901 242.137H269.79L349.22 149.187L348.375 148.511C308.66 187.888 292.943 197.352 285.507 197.352C281.62 197.352 278.916 195.493 278.916 189.578C278.916 179.438 286.521 158.482 302.914 141.582C321.504 122.147 346.347 110.148 358.008 110.148C365.106 110.148 367.472 114.542 367.472 119.443C367.472 122.823 366.458 126.541 364.599 130.597L364.937 130.766L382.851 109.81L384.879 111.331L292.098 235.546ZM285.507 194.648C292.605 194.648 310.519 183.156 360.205 133.132C363.585 127.048 364.768 122.485 364.768 119.105C364.768 115.556 363.247 112.852 359.698 112.852C353.276 112.852 344.319 117.753 313.899 149.187C288.38 175.72 281.958 186.367 281.958 191.437C281.958 193.634 283.141 194.648 285.507 194.648Z" fill="#ECEE7A"/>
<path d="M121.361 290.44C124.401 299.88 127.121 301.64 136.401 301.64V305H98.1606V301.64C113.361 301.64 113.041 299.72 110.161 290.44L101.681 263.56H57.2006L48.8806 290.44C46.0006 299.72 45.6806 301.64 61.0406 301.64V305H28.2406V301.64C37.5206 301.64 40.2406 299.88 43.2806 290.44L79.7606 173.32H84.5606L121.361 290.44ZM58.8006 258.12H100.081L79.6006 192.68H79.1206L58.8006 258.12ZM156.287 188.52C152.127 188.52 148.927 185.32 148.927 181.16C148.927 177.16 152.127 173.8 156.287 173.8C160.287 173.8 163.647 177.16 163.647 181.16C163.647 185.32 160.287 188.52 156.287 188.52ZM162.047 289.64C162.047 299.56 163.167 301.64 172.447 301.64V305H142.687V301.64C151.967 301.64 153.087 299.56 153.087 289.64V236.68C153.087 226.76 153.407 225 144.927 228.84L143.487 225.8L160.127 218.12L162.047 220.04V289.64ZM196.734 289.64C196.734 299.56 197.854 301.64 207.134 301.64V305H177.374V301.64C186.654 301.64 187.774 299.56 187.774 289.64V192.36C187.774 182.28 188.094 180.52 179.614 184.52L178.174 181.32L194.814 173.8L196.734 175.56V289.64ZM262.912 270.92H266.272C263.712 296.04 253.312 308.2 240.832 308.2C224.032 308.2 214.912 289.96 214.912 263.4C214.912 238.76 224.832 218.12 242.272 218.12C257.152 218.12 265.952 234.28 265.952 258.12H224.352V261.64C224.352 282.28 231.232 300.04 243.072 300.04C250.912 300.04 258.912 292.68 262.912 270.92ZM241.792 223.56C231.552 223.56 226.112 236.68 224.672 252.68H256.512C256.512 238.12 252.672 223.56 241.792 223.56ZM326.818 270.92H330.178C327.618 296.04 317.218 308.2 304.738 308.2C287.938 308.2 278.818 289.96 278.818 263.4C278.818 238.76 288.738 218.12 306.178 218.12C321.058 218.12 329.858 234.28 329.858 258.12H288.258V261.64C288.258 282.28 295.138 300.04 306.978 300.04C314.818 300.04 322.818 292.68 326.818 270.92ZM305.698 223.56C295.458 223.56 290.018 236.68 288.578 252.68H320.418C320.418 238.12 316.578 223.56 305.698 223.56ZM357.047 220.04V233H357.527C363.287 224.52 370.327 218.12 378.967 218.12C390.487 218.12 394.647 226.76 394.647 239.56V289.64C394.647 299.56 395.767 301.64 405.207 301.64V305H375.607V301.64C384.727 301.64 385.847 299.56 385.847 289.64V239.56C385.847 230.12 382.807 225.32 376.247 225.32C369.367 225.32 362.647 231.4 357.047 238.44V289.64C357.047 299.56 358.167 301.64 367.127 301.64V305H337.687V301.64C346.967 301.64 348.087 299.56 348.087 289.64V236.68C348.087 226.76 348.407 225 339.927 228.84L338.487 225.8L355.127 218.12L357.047 220.04Z" fill="#ECEE7A"/>
</svg>
